<svg width="103" height="32" viewBox="0 0 103 32" fill="none" xmlns="http://www.w3.org/2000/svg">
<path d="M99.3432 32H3.20462C1.44208 32 0 30.56 0 28.8V3.2C0 1.44 1.44208 0 3.20462 0H99.3432C101.106 0 102.548 1.44 102.548 3.2V28.8C102.548 30.56 101.106 32 99.3432 32Z" fill="black"/>
<path d="M21.6311 15.8397C21.6311 13.3597 23.7141 12.1597 23.7942 12.0797C22.5925 10.3997 20.8299 10.1597 20.189 10.0797C18.6668 9.91972 17.1446 10.9597 16.4236 10.9597C15.6224 10.9597 14.4207 10.0797 13.1388 10.0797C11.4564 10.0797 9.93421 11.0397 9.05294 12.5597C7.2904 15.5997 8.57225 20.0797 10.2547 22.5597C11.1359 23.7597 12.0973 25.1197 13.3792 25.0397C14.661 24.9597 15.1417 24.2397 16.6639 24.2397C18.1861 24.2397 18.5867 25.0397 19.9486 25.0397C21.3106 25.0397 22.1919 23.8397 22.993 22.6397C23.9544 21.2797 24.355 19.9197 24.355 19.8397C24.2749 19.7597 21.6311 18.7997 21.6311 15.8397Z" fill="white"/>
<path d="M19.1472 8.47979C19.7881 7.59979 20.2688 6.47979 20.1887 5.27979C19.2273 5.35979 17.9454 5.91978 17.3045 6.79978C16.6636 7.51978 16.1028 8.71978 16.263 9.83978C17.3045 9.91978 18.4261 9.27979 19.1472 8.47979Z" fill="white"/>
<path d="M39.8986 24.8805H38.136L37.1746 21.8405H33.8098L32.9285 24.8805H31.2461L34.6109 14.5605H36.694L39.8986 24.8805ZM36.8542 20.5605L35.9729 17.8405C35.8928 17.6005 35.7326 16.8805 35.4121 15.9205C35.332 16.3205 35.1718 17.0405 34.9314 17.8405L34.0501 20.5605H36.8542Z" fill="white"/>
<path d="M48.4692 21.1199C48.4692 22.3999 48.1487 23.3599 47.4277 24.1599C46.7868 24.7999 46.0657 25.1199 45.1043 25.1199C44.1429 25.1199 43.4219 24.7999 43.0213 24.0799V27.9999H41.3389V19.9999C41.3389 19.1999 41.3389 18.3999 41.2588 17.5199H42.7009L42.781 18.7199C43.3418 17.8399 44.1429 17.3599 45.2646 17.3599C46.1458 17.3599 46.8669 17.6799 47.4277 18.3999C48.1487 19.0399 48.4692 19.9199 48.4692 21.1199ZM46.7868 21.1199C46.7868 20.3999 46.6265 19.7599 46.3061 19.3599C45.9856 18.8799 45.5049 18.6399 44.864 18.6399C44.4634 18.6399 44.0628 18.7999 43.7424 19.0399C43.4219 19.2799 43.1816 19.6799 43.1014 20.0799C43.0213 20.3199 43.0213 20.4799 43.0213 20.5599V21.8399C43.0213 22.3999 43.1816 22.7999 43.502 23.1999C43.8225 23.5999 44.3032 23.7599 44.7839 23.7599C45.4248 23.7599 45.9055 23.5199 46.226 23.0399C46.6265 22.5599 46.7868 21.9199 46.7868 21.1199Z" fill="white"/>
<path d="M57.0415 21.1199C57.0415 22.3999 56.721 23.3599 55.9999 24.1599C55.359 24.7999 54.638 25.1199 53.6766 25.1199C52.7152 25.1199 51.9942 24.7999 51.5936 24.0799V27.9999H49.9112V19.9999C49.9112 19.1999 49.9112 18.3999 49.8311 17.5199H51.2731L51.3533 18.7199C51.9141 17.8399 52.7152 17.3599 53.8368 17.3599C54.7181 17.3599 55.4391 17.6799 55.9999 18.3999C56.721 19.0399 57.0415 19.9199 57.0415 21.1199ZM55.359 21.1199C55.359 20.3999 55.1988 19.7599 54.8783 19.3599C54.5579 18.8799 54.0772 18.6399 53.4363 18.6399C53.0357 18.6399 52.6351 18.7999 52.3146 19.0399C51.9942 19.2799 51.7538 19.6799 51.6737 20.0799C51.5936 20.3199 51.5936 20.4799 51.5936 20.5599V21.8399C51.5936 22.3999 51.7538 22.7999 52.0743 23.1999C52.3947 23.5999 52.8754 23.7599 53.3561 23.7599C53.9971 23.7599 54.4778 23.5199 54.7982 23.0399C55.1988 22.5599 55.359 21.9199 55.359 21.1199Z" fill="white"/>
<path d="M66.6563 22C66.6563 22.88 66.3358 23.6 65.775 24.16C65.1341 24.8 64.1727 25.04 62.971 25.04C61.8493 25.04 60.9681 24.8 60.3271 24.4L60.7277 23.04C61.4488 23.44 62.2499 23.68 63.1312 23.68C63.7721 23.68 64.2528 23.52 64.5733 23.28C64.8937 22.96 65.054 22.64 65.054 22.16C65.054 21.76 64.8937 21.36 64.6534 21.12C64.3329 20.8 63.8522 20.56 63.2113 20.32C61.3686 19.68 60.4874 18.64 60.4874 17.36C60.4874 16.48 60.8078 15.84 61.4488 15.28C62.0897 14.72 62.8908 14.48 64.0125 14.48C64.9738 14.48 65.6949 14.64 66.3358 14.96L65.9352 16.32C65.3744 16 64.7335 15.84 63.9323 15.84C63.3715 15.84 62.8908 16 62.5704 16.24C62.33 16.48 62.1698 16.8 62.1698 17.2C62.1698 17.6 62.33 17.92 62.6505 18.24C62.8908 18.48 63.4517 18.72 64.1727 19.04C65.054 19.36 65.6949 19.84 66.1756 20.32C66.4159 20.72 66.6563 21.28 66.6563 22Z" fill="white"/>
<path d="M72.1047 18.7196H70.262V22.3196C70.262 23.1996 70.5825 23.6796 71.2234 23.6796C71.5439 23.6796 71.7842 23.6796 71.9444 23.5996L72.0246 24.8796C71.7041 25.0396 71.3035 25.0396 70.7427 25.0396C70.1018 25.0396 69.541 24.8796 69.2205 24.4796C68.8199 24.0796 68.6597 23.4396 68.6597 22.4796V18.7196H67.5381V17.4396H68.6597V16.0796L70.262 15.5996V17.4396H72.1047V18.7196Z" fill="white"/>
<path d="M80.3559 21.1198C80.3559 22.2398 80.0355 23.1998 79.3946 23.9198C78.6735 24.6398 77.7922 25.0398 76.6706 25.0398C75.549 25.0398 74.6677 24.6398 74.0268 23.9198C73.3859 23.1998 73.0654 22.3198 73.0654 21.1998C73.0654 20.0798 73.3859 19.1198 74.1069 18.3998C74.7479 17.6798 75.7093 17.2798 76.8309 17.2798C77.9525 17.2798 78.8337 17.6798 79.4747 18.3998C80.0355 19.1198 80.3559 19.9998 80.3559 21.1198ZM78.5934 21.1998C78.5934 20.4798 78.4332 19.9198 78.1127 19.4398C77.7922 18.8798 77.2314 18.5598 76.5905 18.5598C75.9496 18.5598 75.3888 18.8798 75.0683 19.4398C74.7479 19.9198 74.5876 20.5598 74.5876 21.1998C74.5876 21.9198 74.7479 22.4798 75.0683 22.9598C75.3888 23.5198 75.9496 23.8398 76.5905 23.8398C77.2314 23.8398 77.7121 23.5198 78.1127 22.9598C78.4332 22.4798 78.5934 21.8398 78.5934 21.1998Z" fill="white"/>
<path d="M85.7236 18.8797C85.5633 18.8797 85.4031 18.7997 85.1628 18.7997C84.602 18.7997 84.1213 19.0397 83.8008 19.4397C83.5605 19.8397 83.4002 20.3197 83.4002 20.8797V24.7997H81.7178V19.6797C81.7178 18.7997 81.7178 18.0797 81.6377 17.3597H83.0798L83.1599 18.7997H83.24C83.4002 18.3197 83.7207 17.9197 84.0412 17.5997C84.4417 17.3597 84.8423 17.1997 85.2429 17.1997C85.4031 17.1997 85.5634 17.1997 85.6435 17.1997V18.8797H85.7236Z" fill="white"/>
<path d="M93.0939 20.7998C93.0939 21.1198 93.0939 21.3598 93.0138 21.5198H88.0466C88.0466 22.2398 88.287 22.7998 88.7677 23.1998C89.1683 23.5198 89.7291 23.7598 90.37 23.7598C91.091 23.7598 91.8121 23.6798 92.3729 23.4398L92.6132 24.5598C91.8922 24.8798 91.091 25.0398 90.1296 25.0398C89.008 25.0398 88.0466 24.7198 87.4057 23.9998C86.7648 23.3598 86.4443 22.3998 86.4443 21.2798C86.4443 20.1598 86.7648 19.1998 87.3256 18.4798C87.9665 17.6798 88.8478 17.2798 89.9694 17.2798C91.0109 17.2798 91.8922 17.6798 92.3729 18.4798C92.9337 19.1198 93.0939 19.9198 93.0939 20.7998ZM91.5717 20.3998C91.5717 19.9198 91.4916 19.5198 91.2513 19.1198C90.9308 18.6398 90.5302 18.3998 89.9694 18.3998C89.4086 18.3998 89.008 18.6398 88.6876 19.0398C88.4472 19.3598 88.287 19.8398 88.2069 20.3198H91.5717V20.3998Z" fill="white"/>
<path d="M36.373 8.24033C36.373 9.12033 36.1327 9.84033 35.5719 10.3203C35.0912 10.7203 34.3701 10.9603 33.4088 10.9603C32.9281 10.9603 32.5275 10.9603 32.207 10.8803V5.92033C32.6076 5.84033 33.0883 5.84033 33.6491 5.84033C34.5304 5.84033 35.1713 6.00033 35.652 6.40033C36.0526 6.80033 36.373 7.44033 36.373 8.24033ZM35.4918 8.24033C35.4918 7.68033 35.3315 7.20033 35.0111 6.88033C34.6906 6.56033 34.2099 6.40033 33.6491 6.40033C33.4088 6.40033 33.1684 6.40033 33.0082 6.48033V10.2403C33.0883 10.2403 33.3286 10.2403 33.569 10.2403C34.2099 10.2403 34.6906 10.0803 35.0111 9.76033C35.3315 9.44033 35.4918 8.88033 35.4918 8.24033Z" fill="white"/>
<path d="M40.8591 9.03963C40.8591 9.59963 40.6989 10.0796 40.3784 10.3996C40.058 10.7996 39.5773 10.9596 39.0165 10.9596C38.4556 10.9596 38.0551 10.7996 37.7346 10.3996C37.4141 10.0796 37.2539 9.59963 37.2539 9.03963C37.2539 8.47963 37.4141 7.99963 37.7346 7.67963C38.0551 7.27963 38.5358 7.11963 39.0966 7.11963C39.6574 7.11963 40.058 7.27963 40.3784 7.67963C40.6989 7.99963 40.8591 8.47963 40.8591 9.03963ZM40.0579 9.03963C40.0579 8.71963 39.9778 8.39963 39.8176 8.15963C39.6574 7.83963 39.417 7.75963 39.0966 7.75963C38.7761 7.75963 38.5358 7.91963 38.3755 8.15963C38.2153 8.39963 38.1352 8.71963 38.1352 9.03963C38.1352 9.35963 38.2153 9.67963 38.3755 9.91963C38.5358 10.2396 38.7761 10.3196 39.0966 10.3196C39.417 10.3196 39.6574 10.1596 39.8176 9.83963C39.9778 9.67963 40.0579 9.35963 40.0579 9.03963Z" fill="white"/>
<path d="M47.0279 7.19971L45.9063 10.8797H45.1852L44.7045 9.27971C44.5443 8.87971 44.4642 8.47971 44.3841 8.07971C44.304 8.47971 44.2239 8.87971 44.0636 9.27971L43.5829 10.8797H42.8619L41.6602 7.19971H42.4613L42.8619 8.95971C42.942 9.35971 43.0221 9.75971 43.1022 10.1597C43.1824 9.83971 43.2625 9.43971 43.4227 8.95971L43.9034 7.19971H44.5443L45.025 8.87971C45.1852 9.27971 45.2654 9.67971 45.3455 10.0797C45.4256 9.67971 45.5057 9.27971 45.5858 8.87971L46.0665 7.19971H47.0279Z" fill="white"/>
<path d="M51.1938 10.8805H50.3927V8.80053C50.3927 8.16053 50.1523 7.84053 49.6716 7.84053C49.4313 7.84053 49.2711 7.92053 49.1108 8.08053C48.9506 8.24053 48.8705 8.48053 48.8705 8.72053V10.8805H48.0693V8.24053C48.0693 7.92053 48.0693 7.60053 48.0693 7.20053H48.7904V7.76053C48.8705 7.60053 49.0307 7.44053 49.191 7.28053C49.4313 7.12053 49.6716 7.04053 49.912 7.04053C50.2325 7.04053 50.5529 7.12053 50.7933 7.36053C51.1137 7.60053 51.1938 8.00053 51.1938 8.56053V10.8805Z" fill="white"/>
<path d="M53.4369 10.88H52.6357V5.52002H53.4369V10.88Z" fill="white"/>
<path d="M58.2448 9.03963C58.2448 9.59963 58.0846 10.0796 57.7642 10.3996C57.4437 10.7996 56.963 10.9596 56.4022 10.9596C55.8414 10.9596 55.4408 10.7996 55.1203 10.3996C54.7999 10.0796 54.6396 9.59963 54.6396 9.03963C54.6396 8.47963 54.7999 7.99963 55.1203 7.67963C55.4408 7.35963 55.9215 7.11963 56.4823 7.11963C57.0431 7.11963 57.4437 7.27963 57.7642 7.67963C58.0846 7.99963 58.2448 8.47963 58.2448 9.03963ZM57.4437 9.03963C57.4437 8.71963 57.3636 8.39963 57.2033 8.15963C57.0431 7.83963 56.8028 7.75963 56.4823 7.75963C56.1618 7.75963 55.9215 7.91963 55.7613 8.15963C55.601 8.39963 55.5209 8.71963 55.5209 9.03963C55.5209 9.35963 55.601 9.67963 55.7613 9.91963C55.9215 10.2396 56.1618 10.3196 56.4823 10.3196C56.8028 10.3196 57.0431 10.1596 57.2033 9.83963C57.3636 9.67963 57.4437 9.35963 57.4437 9.03963Z" fill="white"/>
<path d="M62.1703 10.8796H61.4493L61.3692 10.4796C61.1288 10.7996 60.7283 10.9596 60.3277 10.9596C60.0072 10.9596 59.6867 10.8796 59.5265 10.6396C59.3663 10.3996 59.2061 10.1596 59.2061 9.91963C59.2061 9.43963 59.3663 9.11963 59.7669 8.87963C60.1674 8.63963 60.6481 8.55963 61.3692 8.55963V8.47963C61.3692 7.99963 61.1288 7.75963 60.6481 7.75963C60.2476 7.75963 60.0072 7.83963 59.6867 7.99963L59.5265 7.43963C59.847 7.19963 60.2476 7.11963 60.8084 7.11963C61.7698 7.11963 62.2504 7.59963 62.2504 8.63963V9.99963C62.1703 10.3996 62.1703 10.6396 62.1703 10.8796ZM61.3692 9.59963V9.03963C60.4879 9.03963 60.0072 9.27963 60.0072 9.75963C60.0072 9.91963 60.0873 10.0796 60.1674 10.1596C60.2476 10.2396 60.4078 10.3196 60.568 10.3196C60.7283 10.3196 60.8885 10.2396 61.0487 10.1596C61.2089 10.0796 61.2891 9.91963 61.3692 9.75963C61.3692 9.75963 61.3692 9.67963 61.3692 9.59963Z" fill="white"/>
<path d="M66.8161 10.8796H66.095V10.3196C65.8547 10.7996 65.4541 10.9596 64.8933 10.9596C64.4126 10.9596 64.0921 10.7996 63.7717 10.4796C63.4512 10.1596 63.3711 9.67961 63.3711 9.11961C63.3711 8.55961 63.5313 8.07961 63.8518 7.67961C64.1722 7.35961 64.5728 7.19961 64.9734 7.19961C65.4541 7.19961 65.7746 7.35961 66.0149 7.67961V5.59961H66.8161V9.91961C66.8161 10.2396 66.8161 10.5596 66.8161 10.8796ZM66.0149 9.35961V8.71961C66.0149 8.63961 66.0149 8.55961 66.0149 8.47961C65.9348 8.31961 65.8547 8.15961 65.6944 7.99961C65.5342 7.83961 65.374 7.83961 65.1336 7.83961C64.8132 7.83961 64.5728 7.99961 64.4126 8.23961C64.2524 8.47961 64.1722 8.79961 64.1722 9.19961C64.1722 9.59961 64.2524 9.83961 64.4126 10.0796C64.5728 10.3196 64.8132 10.4796 65.1336 10.4796C65.374 10.4796 65.6143 10.3996 65.7746 10.1596C65.9348 9.83961 66.0149 9.59961 66.0149 9.35961Z" fill="white"/>
<path d="M73.7859 9.03963C73.7859 9.59963 73.6256 10.0796 73.3052 10.3996C72.9847 10.7996 72.504 10.9596 71.9432 10.9596C71.3824 10.9596 70.9818 10.7996 70.6613 10.3996C70.3409 10.0796 70.1807 9.59963 70.1807 9.03963C70.1807 8.47963 70.3409 7.99963 70.6613 7.67963C70.9818 7.27963 71.4625 7.11963 72.0233 7.11963C72.5841 7.11963 72.9847 7.27963 73.3052 7.67963C73.6256 7.99963 73.7859 8.47963 73.7859 9.03963ZM72.9046 9.03963C72.9046 8.71963 72.8245 8.39963 72.6642 8.15963C72.504 7.83963 72.2637 7.75963 71.9432 7.75963C71.6227 7.75963 71.3824 7.91963 71.2222 8.15963C71.0619 8.39963 70.9818 8.71963 70.9818 9.03963C70.9818 9.35963 71.0619 9.67963 71.2222 9.91963C71.3824 10.2396 71.6227 10.3196 71.9432 10.3196C72.2637 10.3196 72.504 10.1596 72.6642 9.83963C72.8245 9.67963 72.9046 9.35963 72.9046 9.03963Z" fill="white"/>
<path d="M78.1919 10.8805H77.3907V8.80053C77.3907 8.16053 77.1504 7.84053 76.6697 7.84053C76.4293 7.84053 76.2691 7.92053 76.1089 8.08053C75.9487 8.24053 75.8685 8.48053 75.8685 8.72053V10.8805H75.0674V8.24053C75.0674 7.92053 75.0674 7.60053 75.0674 7.20053H75.7884V7.76053C75.8685 7.60053 76.0288 7.44053 76.189 7.28053C76.4294 7.12053 76.6697 7.04053 76.91 7.04053C77.2305 7.04053 77.551 7.12053 77.7913 7.36053C78.1118 7.60053 78.1919 8.00053 78.1919 8.56053V10.8805Z" fill="white"/>
<path d="M83.6407 7.83982H82.7594V9.59982C82.7594 10.0798 82.9196 10.2398 83.2401 10.2398C83.4003 10.2398 83.4804 10.2398 83.6407 10.2398V10.8798C83.4804 10.9598 83.2401 10.9598 82.9997 10.9598C82.6793 10.9598 82.4389 10.8798 82.2787 10.6398C82.1185 10.4798 82.0384 10.0798 82.0384 9.67982V7.83982H81.4775V7.19982H82.0384V6.55983L82.8395 6.31982V7.19982H83.7208V7.83982H83.6407Z" fill="white"/>
<path d="M87.9673 10.88H87.1661V8.80002C87.1661 8.16002 86.9258 7.84002 86.4451 7.84002C86.0445 7.84002 85.8042 8.00002 85.6439 8.40002C85.6439 8.48002 85.6439 8.56002 85.6439 8.72002V10.88H84.8428V5.52002H85.6439V7.76002C85.8843 7.36002 86.2848 7.12002 86.7655 7.12002C87.086 7.12002 87.4065 7.20002 87.5667 7.44002C87.807 7.68002 87.9673 8.16002 87.9673 8.64002V10.88Z" fill="white"/>
<path d="M92.3726 8.87971C92.3726 9.03971 92.3726 9.11971 92.3726 9.27971H89.9691C89.9691 9.67971 90.1293 9.91971 90.2896 10.0797C90.5299 10.2397 90.7703 10.3197 91.0907 10.3197C91.4913 10.3197 91.8118 10.2397 92.0521 10.1597L92.2124 10.7197C91.8919 10.8797 91.4913 10.9597 91.0106 10.9597C90.4498 10.9597 89.9691 10.7997 89.6487 10.4797C89.3282 10.1597 89.168 9.67971 89.168 9.11971C89.168 8.55971 89.3282 8.07971 89.6487 7.75971C89.9691 7.35971 90.3697 7.19971 90.9305 7.19971C91.4913 7.19971 91.8919 7.35971 92.1322 7.75971C92.2925 7.99971 92.3726 8.39971 92.3726 8.87971ZM91.6516 8.63971C91.6516 8.39971 91.5714 8.15971 91.4913 7.99971C91.3311 7.75971 91.1709 7.67971 90.8504 7.67971C90.6101 7.67971 90.3697 7.75971 90.2095 7.99971C90.0492 8.15971 89.9691 8.39971 89.9691 8.63971H91.6516Z" fill="white"/>
</svg>
