<svg width="158" height="67" viewBox="0 0 158 67" fill="none" xmlns="http://www.w3.org/2000/svg">
<path d="M10.6395 32.7267C10.4783 23.0292 9.53007 18.9016 8.57232 16.0455C3.97323 15.2579 0 11.7565 0 7.14502C0 3.17873 2.70256 0 7.14992 0C13.9774 0 18.2636 6.19615 18.2636 18.9111C18.2636 25.5816 22.8722 39.0367 32.554 39.0367C34.6212 39.0367 36.5272 41.1052 36.5272 44.284C36.5272 47.4627 34.6212 49.5312 32.554 49.5312C26.8359 49.5312 21.592 48.0984 18.2636 43.0125L18.1024 42.8512C18.2636 46.8269 18.7377 53.4975 19.3731 57.6346C17.9412 58.7448 15.7222 59.2192 13.4938 59.2192C11.2749 42.8512 10.9525 49.1042 10.6395 32.7362V32.7267Z" fill="#0F4D92"/>
<path d="M91.4697 31.7208C91.4697 41.7315 86.2258 49.0378 79.2371 49.0378C74.3156 49.0378 69.8682 46.1817 67.6493 41.5702C66.5398 46.343 63.5243 49.8349 58.1192 49.8349C53.6719 49.8349 49.2245 46.9787 46.3702 40.6213C43.3547 46.6561 38.585 49.5217 32.554 49.5217C30.335 49.5217 28.5807 47.4532 28.5807 44.2745C28.5807 41.0957 30.3256 39.0272 32.554 39.0272C40.178 39.0272 44.1418 34.8996 45.5737 26.6349C47.7926 26.6349 48.9116 27.1093 50.1822 27.7451C51.4529 34.7383 53.5201 39.3403 58.1192 39.3403C61.6088 39.3403 63.6761 36.4842 63.6761 31.2369C63.6761 29.3297 63.3631 26.6254 62.8795 24.5663C65.895 24.5663 68.1234 25.0408 68.9105 25.8378C71.1389 34.577 75.1027 38.5527 79.7112 38.5527C83.362 38.5527 85.1069 36.1711 85.1069 33.4668C85.1069 29.491 81.2948 25.6765 76.2121 23.2948C77.0087 19.0059 80.6595 15.0302 84.1491 14.3944C88.4353 18.3702 91.4602 25.2021 91.4602 31.7114L91.4697 31.7208Z" fill="#0F4D92"/>
<path d="M106.87 32.7267C106.708 23.0292 105.76 18.9016 104.802 16.0455C100.194 15.2484 96.23 11.7565 96.23 7.14502C96.23 3.16924 98.9325 0 103.38 0C110.207 0 114.494 6.19615 114.494 18.9111C114.494 25.5816 119.093 39.0367 128.784 39.0367C130.851 39.0367 132.757 41.1052 132.757 44.284C132.757 47.4627 130.851 49.5312 128.784 49.5312C123.066 49.5312 117.831 48.0984 114.494 43.0125L114.332 42.8512C114.494 46.8269 114.968 53.4975 115.603 57.6346C114.171 58.7448 111.952 59.2192 109.724 59.2192C107.495 42.8512 107.182 49.1042 106.87 32.7362V32.7267Z" fill="#0F4D92"/>
<path d="M153.875 28.0677C153.875 42.0541 144.98 49.5217 128.784 49.5217C126.717 49.5217 124.65 48.4115 124.65 44.2744C124.65 40.1373 126.717 39.0272 128.784 39.0272C134.341 39.0272 140.855 38.5527 143.236 37.5944C145.777 36.6455 147.522 35.0514 147.522 32.5084C147.522 28.2195 144.506 25.2021 135.773 19.319C136.569 15.8272 140.059 10.7412 143.548 8.19824C150.215 13.5973 153.875 21.065 153.875 28.0582V28.0677Z" fill="#0F4D92"/>
<path d="M138.314 55.5566C141.168 55.5566 143.236 58.7353 143.236 61.914C143.236 64.6183 141.168 67 138.314 67C135.46 67 133.554 64.6183 133.554 61.914C133.554 58.7353 135.46 55.5566 138.314 55.5566Z" fill="#EA4435"/>
<path d="M153.078 55.5566C155.933 55.5566 158 58.7353 158 61.914C158 64.6183 155.933 67 153.078 67C150.224 67 148.318 64.6183 148.318 61.914C148.318 58.7353 150.224 55.5566 153.078 55.5566Z" fill="#EA4435"/>
</svg>
