<svg id="Layer_1-2" xmlns="http://www.w3.org/2000/svg" width="158" height="67" viewBox="0 0 158 67">
  <path id="Path_1" data-name="Path 1" d="M10.639,32.727c-.161-9.7-1.109-13.825-2.067-16.681C3.973,15.258,0,11.757,0,7.145A6.838,6.838,0,0,1,7.15,0c6.827,0,11.114,6.2,11.114,18.911,0,6.67,4.609,20.126,14.29,20.126,2.067,0,3.973,2.069,3.973,5.247s-1.906,5.247-3.973,5.247c-5.718,0-10.962-1.433-14.29-6.519l-.161-.161c.161,3.976.635,10.646,1.271,14.783a9.869,9.869,0,0,1-5.879,1.585C11.275,42.851,10.953,49.1,10.639,32.736Z" fill="#fff"/>
  <path id="Path_2" data-name="Path 2" d="M91.47,31.721c0,10.011-5.244,17.317-12.233,17.317A12.862,12.862,0,0,1,67.649,41.57c-1.109,4.773-4.125,8.265-9.53,8.265-4.447,0-8.895-2.856-11.749-9.214-3.016,6.035-7.785,8.9-13.816,8.9-2.219,0-3.973-2.069-3.973-5.247s1.745-5.247,3.973-5.247c7.624,0,11.588-4.128,13.02-12.392a8.944,8.944,0,0,1,4.609,1.11c1.271,6.993,3.338,11.6,7.937,11.6,3.49,0,5.557-2.856,5.557-8.1a32.619,32.619,0,0,0-.8-6.671c3.015,0,5.244.475,6.031,1.271,2.228,8.739,6.192,12.715,10.8,12.715,3.651,0,5.4-2.382,5.4-5.086,0-3.976-3.812-7.79-8.895-10.172.8-4.289,4.447-8.265,7.937-8.9A24.779,24.779,0,0,1,91.46,31.711Z" fill="#fff"/>
  <path id="Path_3" data-name="Path 3" d="M106.87,32.727c-.162-9.7-1.11-13.825-2.068-16.681-4.608-.8-8.572-4.289-8.572-8.9A6.833,6.833,0,0,1,103.38,0c6.827,0,11.114,6.2,11.114,18.911,0,6.67,4.6,20.126,14.29,20.126,2.067,0,3.973,2.069,3.973,5.247s-1.906,5.247-3.973,5.247c-5.718,0-10.953-1.433-14.29-6.519l-.162-.161c.162,3.976.636,10.646,1.271,14.783a9.869,9.869,0,0,1-5.879,1.585C107.5,42.851,107.182,49.1,106.87,32.736Z" fill="#fff"/>
  <path id="Path_4" data-name="Path 4" d="M153.875,28.068c0,13.986-8.9,21.454-25.091,21.454-2.067,0-4.134-1.11-4.134-5.247s2.067-5.247,4.134-5.247c5.557,0,12.071-.474,14.452-1.433,2.541-.949,4.286-2.543,4.286-5.086,0-4.289-3.016-7.306-11.749-13.189.8-3.492,4.286-8.578,7.775-11.121,6.667,5.4,10.327,12.867,10.327,19.86Z" fill="#fff"/>
  <path id="Path_5" data-name="Path 5" d="M138.314,55.557c2.854,0,4.922,3.179,4.922,6.357A4.984,4.984,0,0,1,138.314,67a4.851,4.851,0,0,1-4.76-5.086C133.554,58.735,135.46,55.557,138.314,55.557Z" fill="#ea4435"/>
  <path id="Path_6" data-name="Path 6" d="M153.078,55.557c2.855,0,4.922,3.179,4.922,6.357A4.984,4.984,0,0,1,153.078,67a4.851,4.851,0,0,1-4.76-5.086C148.318,58.735,150.224,55.557,153.078,55.557Z" fill="#ea4435"/>
</svg>
