<svg width="106" height="32" viewBox="0 0 106 32" fill="none" xmlns="http://www.w3.org/2000/svg">
<path d="M102.303 32H3.50613C1.69485 32 0.212891 30.56 0.212891 28.8V3.2C0.212891 1.44 1.69485 0 3.50613 0H102.303C104.115 0 105.597 1.44 105.597 3.2V28.8C105.597 30.56 104.115 32 102.303 32Z" fill="black"/>
<path fill-rule="evenodd" clip-rule="evenodd" d="M8.28027 15.6799V7.2799C8.28027 6.7999 8.69193 6.3999 9.10358 6.3999C9.51524 6.3999 9.6799 6.4799 9.92689 6.6399L25.8168 15.1199C26.1461 15.2799 26.3108 15.5199 26.3108 15.7599C26.3108 15.9999 26.1461 16.2399 25.8168 16.3999L9.92689 24.8799C9.76223 24.9599 9.51524 25.1199 9.10358 25.1199C8.69193 25.1199 8.28027 24.7199 8.28027 24.2399V15.6799Z" fill="url(#paint0_linear_1140_3814)"/>
<path fill-rule="evenodd" clip-rule="evenodd" d="M18.5722 15.7599L8.93945 6.3999C9.02178 6.3999 9.02178 6.3999 9.10411 6.3999C9.51577 6.3999 9.68043 6.4799 9.92742 6.6399L21.6184 12.8799L18.5722 15.7599Z" fill="url(#paint1_linear_1140_3814)"/>
<path fill-rule="evenodd" clip-rule="evenodd" d="M21.5362 18.5602L18.5723 15.6802L21.6185 12.7202L25.8174 14.9602C26.1467 15.1202 26.3114 15.3602 26.3114 15.6002C26.3114 15.8402 26.1467 16.0802 25.8174 16.2402L21.5362 18.5602Z" fill="url(#paint2_linear_1140_3814)"/>
<path fill-rule="evenodd" clip-rule="evenodd" d="M9.02148 24.9597L18.5719 15.6797L21.5358 18.5597L9.92713 24.7197C9.68014 24.8797 9.51547 24.9597 9.02148 24.9597C9.10382 24.9597 9.10382 24.9597 9.02148 24.9597Z" fill="url(#paint3_linear_1140_3814)"/>
<path fill-rule="evenodd" clip-rule="evenodd" d="M58.7498 27.1204C58.3382 26.8004 58.0088 26.2404 57.8442 25.9204L59.1615 25.3604C59.2438 25.5204 59.4085 25.7604 59.5731 26.0004C59.9024 26.3204 60.3964 26.6404 60.8904 26.6404C61.3844 26.6404 61.9607 26.4004 62.29 26.0004C62.537 25.6004 62.7017 25.2004 62.7017 24.6404V24.1604C61.7137 25.3604 59.6554 25.2004 58.5028 23.9204C57.2678 22.6404 57.2678 20.4804 58.5028 19.2004C59.7378 18.0004 61.549 17.8404 62.6194 18.9604V18.4004H64.019V24.4004C64.019 25.9204 63.4427 26.8004 62.7017 27.3604C62.2077 27.7604 61.4667 27.9204 60.8081 27.9204C60.0671 27.8404 59.3261 27.6004 58.7498 27.1204ZM93.2465 27.4404L94.6461 24.2404L92.1762 18.7204H93.5758L95.3048 22.6404L97.0337 18.7204H98.4334L94.6461 27.4404H93.2465ZM86.5777 24.4004C86.166 24.0004 86.0014 23.4404 86.0014 22.8804C86.0014 22.4004 86.166 21.9204 86.4954 21.6004C87.0717 21.0404 87.895 20.8004 88.8006 20.8004C89.377 20.8004 89.8709 20.8804 90.2826 21.1204C90.2826 20.1604 89.4593 19.7604 88.8006 19.7604C88.2243 19.7604 87.648 20.0804 87.401 20.6404L86.166 20.1604C86.413 19.6004 87.0717 18.5604 88.7183 18.5604C89.5416 18.5604 90.3649 18.8004 90.8589 19.3604C91.3529 19.9204 91.5176 20.5604 91.5176 21.4404V24.8004H90.1179V24.2404C89.9533 24.4804 89.6239 24.6404 89.3769 24.8004C89.0476 24.9604 88.636 25.0404 88.2243 25.0404C87.7303 24.9604 86.9893 24.8004 86.5777 24.4004ZM42.6952 21.5204C42.6952 19.9204 43.9302 18.1604 46.1531 18.1604C48.2938 18.1604 49.6111 19.9204 49.6111 21.5204C49.6111 23.1204 48.3761 24.8804 46.1531 24.8804C43.9302 24.8804 42.6952 23.1204 42.6952 21.5204ZM50.105 21.5204C50.105 19.9204 51.34 18.1604 53.5629 18.1604C55.7036 18.1604 57.0208 19.9204 57.0208 21.5204C57.0208 23.1204 55.7859 24.8804 53.5629 24.8804C51.4223 24.8804 50.105 23.1204 50.105 21.5204ZM33.3918 23.2804C31.3336 21.2804 31.4159 18.0004 33.4742 15.9204C34.5445 14.8804 35.8618 14.4004 37.2614 14.4004C38.5787 14.4004 39.896 14.8804 40.884 15.8404L39.896 16.8804C38.414 15.4404 36.0264 15.5204 34.6268 16.9604C33.1448 18.4804 33.1448 20.8004 34.6268 22.3204C36.1088 23.8404 38.5787 23.9204 40.0606 22.4004C40.5546 21.9204 40.7193 21.2804 40.8016 20.6404H37.3437V19.2004H42.2013C42.2836 19.5204 42.2836 19.9204 42.2836 20.3204C42.2836 21.5204 41.7896 22.7204 40.9663 23.5204C40.0606 24.4004 38.7433 24.8804 37.4261 24.8804C35.9441 24.8004 34.4621 24.3204 33.3918 23.2804ZM68.2179 23.8404C66.9829 22.5604 66.9829 20.4004 68.2179 19.0404C69.4528 17.7604 71.5111 17.7604 72.6637 19.0404C73.0754 19.4404 73.3224 20.0004 73.5694 20.5604L69.0412 22.4004C69.2882 22.9604 69.8645 23.4404 70.6878 23.4404C71.4288 23.4404 71.9228 23.2004 72.4168 22.4804L73.6517 23.2804C73.4871 23.4404 73.3224 23.6004 73.2401 23.7604C71.8405 25.1204 69.4528 25.1204 68.2179 23.8404ZM76.7803 24.8004V15.9204H79.7442C81.4732 15.9204 82.8728 17.1204 82.8728 18.5604C82.8728 20.0004 81.6378 21.2004 80.0735 21.2004H78.2623V24.7204H76.7803V24.8004ZM83.6961 24.8004V15.9204H85.0957V24.8004H83.6961ZM65.0893 24.6404V14.7204H66.5713V24.6404H65.0893ZM90.2003 22.1604C89.8709 21.9204 89.377 21.8404 88.883 21.8404C87.895 21.8404 87.3187 22.3204 87.3187 22.8804C87.3187 23.4404 87.895 23.7604 88.4713 23.7604C89.2946 23.7604 90.2003 23.1204 90.2003 22.1604ZM48.0468 21.5204C48.0468 20.5604 47.3881 19.5204 46.1531 19.5204C44.9182 19.5204 44.2595 20.5604 44.2595 21.5204C44.2595 22.4804 44.9182 23.5204 46.1531 23.5204C47.3058 23.5204 48.0468 22.4804 48.0468 21.5204ZM55.4566 21.5204C55.4566 20.5604 54.7979 19.5204 53.5629 19.5204C52.328 19.5204 51.6693 20.5604 51.6693 21.5204C51.6693 22.4804 52.328 23.5204 53.5629 23.5204C54.7979 23.5204 55.4566 22.4804 55.4566 21.5204ZM62.784 22.0804C62.784 22.0004 62.784 21.9204 62.8664 21.8404C62.8664 21.7604 62.8664 21.6004 62.8664 21.5204C62.8664 21.4404 62.8664 21.2804 62.8664 21.2004V21.1204C62.8664 21.0404 62.784 20.8804 62.784 20.8004C62.537 20.0004 61.796 19.4404 61.0551 19.4404C60.0671 19.4404 59.2438 20.4004 59.2438 21.4404C59.2438 22.5604 60.0671 23.4404 61.1374 23.4404C61.796 23.5204 62.4547 22.9604 62.784 22.0804ZM68.7942 21.3604L71.8404 20.0804C71.5111 19.5204 71.0171 19.3604 70.6055 19.3604C69.3705 19.4404 68.6295 20.7204 68.7942 21.3604ZM81.3908 18.6404C81.3908 17.8404 80.7322 17.2804 79.8266 17.2804H78.1799V20.0804H79.9089C80.7322 20.0804 81.3908 19.4404 81.3908 18.6404Z" fill="white"/>
<path fill-rule="evenodd" clip-rule="evenodd" d="M94.3175 25.8402H94.2354V25.7598H94.3175H94.2354V25.8402H94.3175Z" fill="white"/>
<path fill-rule="evenodd" clip-rule="evenodd" d="M94.4815 25.8402C94.4815 25.7598 94.4815 25.7598 94.4815 25.8402C94.3994 25.7598 94.3994 25.7598 94.4815 25.8402C94.3994 25.8402 94.3994 25.8402 94.4815 25.8402ZM94.4815 25.7598C94.4815 25.8402 94.4815 25.8402 94.4815 25.7598C94.4815 25.8402 94.3994 25.8402 94.4815 25.7598C94.3994 25.7598 94.4815 25.7598 94.4815 25.7598Z" fill="white"/>
<path fill-rule="evenodd" clip-rule="evenodd" d="M94.5636 25.7598H94.4814H94.5636V25.8402V25.7598Z" fill="white"/>
<path d="M32.2393 8.08025C32.2393 6.64025 33.3096 5.76025 34.6269 5.76025C35.5325 5.76025 36.1088 6.16025 36.5205 6.72025L35.8618 7.12025C35.6148 6.80025 35.2032 6.56025 34.6269 6.56025C33.7212 6.56025 33.0626 7.20025 33.0626 8.16025C33.0626 9.12025 33.7212 9.76025 34.6269 9.76025C35.1209 9.76025 35.5325 9.52025 35.6972 9.36025V8.64025H34.3799V7.92025H36.6028V9.60025C36.1912 10.0803 35.5325 10.4003 34.7092 10.4003C33.3096 10.4003 32.2393 9.44025 32.2393 8.08025Z" fill="white"/>
<path d="M37.5908 10.3198V5.83984H40.7194V6.55984H38.3318V7.67984H40.6371V8.39984H38.3318V9.67984H40.7194V10.3998L37.5908 10.3198Z" fill="white"/>
<path d="M43.0256 10.3198V6.55984H41.626V5.83984H45.2485V6.55984H43.8489V10.3198H43.0256Z" fill="white"/>
<path d="M48.0459 10.3198V5.83984H48.8692V10.3198H48.0459Z" fill="white"/>
<path d="M51.093 10.3198V6.55984H49.6934V5.83984H53.3159V6.55984H51.9163V10.3198H51.093Z" fill="white"/>
<path d="M55.9502 8.08025C55.9502 6.72025 56.9382 5.76025 58.3378 5.76025C59.7374 5.76025 60.7254 6.72025 60.7254 8.08025C60.7254 9.44025 59.7374 10.4003 58.3378 10.4003C56.9382 10.4003 55.9502 9.36025 55.9502 8.08025ZM59.8198 8.08025C59.8198 7.12025 59.2434 6.48025 58.2555 6.48025C57.3498 6.48025 56.6912 7.20025 56.6912 8.08025C56.6912 9.04025 57.2675 9.68025 58.2555 9.68025C59.2434 9.68025 59.8198 8.96025 59.8198 8.08025Z" fill="white"/>
<path d="M64.8427 10.3198L62.4551 7.11984V10.3198H61.6318V5.83984H62.4551L64.8427 8.95984V5.83984H65.6661V10.3198H64.8427Z" fill="white"/>
<defs>
<linearGradient id="paint0_linear_1140_3814" x1="13.605" y1="5.25878" x2="17.9703" y2="23.7092" gradientUnits="userSpaceOnUse">
<stop stop-color="#006884"/>
<stop offset="1" stop-color="#8AD1D0"/>
</linearGradient>
<linearGradient id="paint1_linear_1140_3814" x1="7.98499" y1="7.87494" x2="20.3797" y2="14.7708" gradientUnits="userSpaceOnUse">
<stop stop-color="#24BBB6"/>
<stop offset="1" stop-color="#DBE692"/>
</linearGradient>
<linearGradient id="paint2_linear_1140_3814" x1="22.4372" y1="18.8963" x2="22.4372" y2="12.5376" gradientUnits="userSpaceOnUse">
<stop stop-color="#FCC072"/>
<stop offset="1" stop-color="#F58A5B"/>
</linearGradient>
<linearGradient id="paint3_linear_1140_3814" x1="10.4167" y1="26.615" x2="20.0493" y2="16.5262" gradientUnits="userSpaceOnUse">
<stop stop-color="#712B8F"/>
<stop offset="1" stop-color="#EA1D27"/>
</linearGradient>
</defs>
</svg>
