<svg xmlns="http://www.w3.org/2000/svg" version="1.1" xmlns:xlink="http://www.w3.org/1999/xlink" xmlns:svgjs="http://svgjs.com/svgjs" width="32" height="25"><svg xmlns="http://www.w3.org/2000/svg" width="32" height="25" viewBox="0 0 32 25">
  <g id="SvgjsG1008" data-name="Group 1" transform="translate(-645 -376)">
    <rect id="SvgjsRect1007" data-name="Rectangle 1" width="32" height="25" rx="2" transform="translate(645 376)" fill="none" opacity="0.51"></rect>
    <g id="SvgjsG1006" transform="translate(645.343 381.598)">
      <path id="SvgjsPath1005" data-name="Path 1" d="M2.125,6.536A10.572,10.572,0,0,0,1.712,3.2,1.927,1.927,0,0,1,0,1.427,1.366,1.366,0,0,1,1.428,0c1.364,0,2.22,1.238,2.22,3.777,0,1.332.92,4.02,2.854,4.02.413,0,.794.413.794,1.048S6.915,9.892,6.5,9.892a3.133,3.133,0,0,1-2.854-1.3l-.032-.032c.032.794.127,2.126.254,2.953a1.971,1.971,0,0,1-1.174.316c-.443-3.269-.508-2.02-.57-5.289Z" transform="translate(0)" fill="#0f4d92"></path>
      <path id="SvgjsPath1004" data-name="Path 2" d="M41.141,17.855c0,2-1.047,3.459-2.443,3.459a2.569,2.569,0,0,1-2.314-1.491,1.89,1.89,0,0,1-1.9,1.651,2.667,2.667,0,0,1-2.347-1.84,2.93,2.93,0,0,1-2.759,1.778c-.443,0-.794-.413-.794-1.048s.348-1.048.794-1.048c1.523,0,2.314-.824,2.6-2.475a1.786,1.786,0,0,1,.92.222c.254,1.4.667,2.316,1.585,2.316.7,0,1.11-.57,1.11-1.618a6.515,6.515,0,0,0-.159-1.332,1.97,1.97,0,0,1,1.2.254c.445,1.745,1.237,2.539,2.157,2.539A.982.982,0,0,0,39.87,18.2c0-.794-.761-1.556-1.776-2.032a2.292,2.292,0,0,1,1.585-1.778,4.949,4.949,0,0,1,1.46,3.459Z" transform="translate(-22.872 -11.52)" fill="#0f4d92"></path>
      <path id="SvgjsPath1003" data-name="Path 3" d="M98.355,6.536A10.574,10.574,0,0,0,97.942,3.2,1.927,1.927,0,0,1,96.23,1.427,1.365,1.365,0,0,1,97.658,0c1.364,0,2.22,1.238,2.22,3.777,0,1.332.919,4.02,2.854,4.02.413,0,.793.413.793,1.048s-.381,1.048-.793,1.048a3.135,3.135,0,0,1-2.854-1.3l-.032-.032c.032.794.127,2.126.254,2.953a1.971,1.971,0,0,1-1.174.316c-.445-3.269-.508-2.02-.57-5.289Z" transform="translate(-77.011)" fill="#0f4d92"></path>
      <path id="SvgjsPath1002" data-name="Path 4" d="M130.487,12.167c0,2.793-1.777,4.285-5.011,4.285-.413,0-.826-.222-.826-1.048s.413-1.048.826-1.048a10.855,10.855,0,0,0,2.886-.286,1.1,1.1,0,0,0,.856-1.016c0-.857-.6-1.459-2.347-2.634A4.552,4.552,0,0,1,128.424,8.2a5.251,5.251,0,0,1,2.063,3.966Z" transform="translate(-99.755 -6.561)" fill="#0f4d92"></path>
      <path id="SvgjsPath1001" data-name="Path 5" d="M134.5,55.557c.57,0,.983.635.983,1.27a1,1,0,0,1-.983,1.016.969.969,0,0,1-.951-1.016C133.554,56.191,133.935,55.557,134.5,55.557Z" transform="translate(-106.88 -44.461)" fill="#ea4435"></path>
      <path id="SvgjsPath1000" data-name="Path 6" d="M149.269,55.557c.57,0,.983.635.983,1.27a1,1,0,0,1-.983,1.016.969.969,0,0,1-.951-1.016C148.318,56.191,148.7,55.557,149.269,55.557Z" transform="translate(-118.696 -44.461)" fill="#ea4435"></path>
    </g>
  </g>
</svg><style>@media (prefers-color-scheme: light) { :root { filter: none; } }
</style></svg>