<svg width="18" height="18" viewBox="0 0 18 18" fill="none" xmlns="http://www.w3.org/2000/svg">
<path d="M17.9742 0.498502L11.6042 17.7549C11.5787 17.8239 11.5333 17.8837 11.4737 17.9268C11.4141 17.9699 11.3431 17.9943 11.2696 17.9968C11.1961 17.9994 11.1235 17.98 11.0611 17.9412C10.9986 17.9024 10.9492 17.8458 10.919 17.7788L7.84296 10.9396L11.4681 7.31383C11.5623 7.20778 11.6125 7.06973 11.6083 6.92791C11.6041 6.7861 11.5459 6.65124 11.4456 6.55092C11.3453 6.4506 11.2104 6.3924 11.0686 6.38822C10.9268 6.38405 10.7888 6.43421 10.6827 6.52846L7.0576 10.1542L0.218385 7.07822C0.151321 7.04807 0.0947539 6.99864 0.055899 6.93622C0.017044 6.8738 -0.00233791 6.80122 0.000224982 6.72774C0.00278788 6.65426 0.0271794 6.5832 0.0702889 6.52364C0.113398 6.46408 0.173272 6.41871 0.242273 6.39331L17.4984 0.0227024C17.5648 -0.00167298 17.6368 -0.00653832 17.7059 0.00868072C17.7749 0.0238998 17.8382 0.0585678 17.8883 0.108592C17.9383 0.158617 17.973 0.221909 17.9882 0.290998C18.0034 0.360088 17.9985 0.432089 17.9742 0.498502Z" fill="white"/>
</svg>
