<svg width="20" height="15" viewBox="0 0 20 15" fill="none" xmlns="http://www.w3.org/2000/svg">
<path d="M1.73036 15C1.2375 15 0.826072 14.835 0.496072 14.505C0.165357 14.1743 0 13.7625 0 13.2696V1.73036C0 1.2375 0.165357 0.826071 0.496072 0.496071C0.826072 0.165357 1.2375 0 1.73036 0H17.5554C18.0482 0 18.4596 0.165357 18.7896 0.496071C19.1204 0.826071 19.2857 1.2375 19.2857 1.73036V13.2696C19.2857 13.7625 19.1207 14.1739 18.7907 14.5039C18.46 14.8346 18.0482 15 17.5554 15H1.73036ZM9.64286 7.62321L18.2143 2.01964L17.8843 1.07143L9.64286 6.42857L1.40143 1.07143L1.07143 2.01964L9.64286 7.62321Z" fill="#0F4D92"/>
</svg>
