<svg width="19" height="19" viewBox="0 0 19 19" fill="none" xmlns="http://www.w3.org/2000/svg">
<path fill-rule="evenodd" clip-rule="evenodd" d="M9.73071 0C10.1787 0.0587415 10.6133 0.287873 11.0304 0.679799C11.5191 1.13898 11.9738 1.82037 12.3575 2.67294C12.5281 3.05199 12.6845 3.46473 12.8249 3.90623H9.73071V0Z" fill="#0F4D92"/>
<path fill-rule="evenodd" clip-rule="evenodd" d="M9.26688 0V3.90614H6.17334C6.31374 3.46468 6.47023 3.05188 6.64086 2.67286C7.02467 1.82028 7.47958 1.13885 7.96817 0.679658C8.38512 0.287799 8.81943 0.0587902 9.26688 0Z" fill="#0F4D92"/>
<path fill-rule="evenodd" clip-rule="evenodd" d="M8.06648 0.00404358C7.9239 0.103263 7.78542 0.216328 7.65162 0.342062C7.10163 0.858948 6.62099 1.58993 6.21908 2.48273C6.02222 2.92001 5.84445 3.39661 5.68796 3.90628H1.74344C3.20251 1.84851 5.46023 0.397669 8.06648 0.00404358Z" fill="#0F4D92"/>
<path fill-rule="evenodd" clip-rule="evenodd" d="M10.9327 0.00404358C13.5386 0.39791 15.7967 1.84865 17.2561 3.90614H13.3107C13.1543 3.39649 12.9766 2.91985 12.7799 2.48259C12.3781 1.58978 11.8975 0.85875 11.3474 0.34185C11.2136 0.216178 11.0752 0.103222 10.9327 0.00404358Z" fill="#0F4D92"/>
<path fill-rule="evenodd" clip-rule="evenodd" d="M17.5555 4.35455C18.434 5.75477 18.9574 7.40061 18.9996 9.16641H14.0702C14.0519 7.41713 13.8274 5.78131 13.4447 4.36983H17.47C17.4992 4.37006 17.5283 4.36496 17.5555 4.35455Z" fill="#0F4D92"/>
<path fill-rule="evenodd" clip-rule="evenodd" d="M1.43362 4.36989H5.55309C5.17018 5.78137 4.94539 7.41717 4.9271 9.16647H0C0.0420427 7.40712 0.561365 5.76676 1.43362 4.36989Z" fill="#0F4D92"/>
<path fill-rule="evenodd" clip-rule="evenodd" d="M6.03509 4.36989H9.26688V9.16647H5.3907C5.40971 7.40504 5.64488 5.76303 6.03509 4.36989Z" fill="#0F4D92"/>
<path fill-rule="evenodd" clip-rule="evenodd" d="M9.73071 4.36989H12.963C13.3529 5.76302 13.5878 7.40503 13.6068 9.16647H9.73071V4.36989Z" fill="#0F4D92"/>
<path fill-rule="evenodd" clip-rule="evenodd" d="M0 9.62979H4.9271C4.94511 11.3553 5.16404 12.9702 5.53723 14.3685H1.39698C0.546902 12.9842 0.0414169 11.365 0 9.62979Z" fill="#0F4D92"/>
<path fill-rule="evenodd" clip-rule="evenodd" d="M5.3907 9.62979H9.26688V14.3685H6.01835C5.63807 12.9879 5.40943 11.3669 5.3907 9.62979Z" fill="#0F4D92"/>
<path fill-rule="evenodd" clip-rule="evenodd" d="M9.73071 9.62979H13.6068C13.5881 11.3669 13.3597 12.9879 12.9797 14.3685H9.73071V9.62979Z" fill="#0F4D92"/>
<path fill-rule="evenodd" clip-rule="evenodd" d="M14.0705 9.62979H18.9999C18.9582 11.377 18.4457 13.0066 17.5846 14.3972C17.5498 14.3779 17.51 14.368 17.4703 14.3685H13.4609C13.8338 12.9702 14.0525 11.3553 14.0705 9.62979Z" fill="#0F4D92"/>
<path fill-rule="evenodd" clip-rule="evenodd" d="M1.70038 14.8321H5.66868C5.82951 15.3644 6.01346 15.8612 6.21797 16.3156C6.61988 17.2085 7.10052 17.9396 7.65051 18.4565C7.78431 18.5823 7.92279 18.6953 8.06537 18.7946C5.434 18.3971 3.15794 16.922 1.70038 14.8321Z" fill="#0F4D92"/>
<path fill-rule="evenodd" clip-rule="evenodd" d="M6.1545 14.8321H9.26665V18.7985C8.8192 18.7397 8.38489 18.5106 7.96794 18.1187C7.47935 17.6595 7.02444 16.978 6.64063 16.1253C6.46238 15.7293 6.29965 15.2961 6.1545 14.8321Z" fill="#0F4D92"/>
<path fill-rule="evenodd" clip-rule="evenodd" d="M9.73071 14.8321H12.8434C12.6983 15.2961 12.5357 15.7293 12.3575 16.1254C11.9738 16.9781 11.5191 17.6595 11.0304 18.1187C10.6133 18.5107 10.1787 18.7398 9.73071 18.7985V14.8321Z" fill="#0F4D92"/>
<path fill-rule="evenodd" clip-rule="evenodd" d="M13.3288 14.8321H17.2981C15.8401 16.9217 13.5638 18.3968 10.9327 18.7944C11.0752 18.6952 11.2136 18.5822 11.3474 18.4565C11.8975 17.9396 12.3781 17.2086 12.7799 16.3156C12.9843 15.8612 13.1681 15.3644 13.3288 14.8321Z" fill="#0F4D92"/>
</svg>
