<svg width="20" height="20" viewBox="0 0 20 20" fill="none" xmlns="http://www.w3.org/2000/svg">
<path d="M4.29688 20H0.300781V7.15234H4.29688V20ZM2.27734 5.43359C1.03125 5.43359 0 4.35938 0 3.07031C0 1.30859 1.89062 0.191406 3.4375 1.09375C4.16797 1.48047 4.59766 2.25391 4.59766 3.07031C4.59766 4.35938 3.56641 5.43359 2.27734 5.43359ZM19.207 20H15.2539V13.7695C15.2539 12.2656 15.2109 10.375 13.1484 10.375C11.0859 10.375 10.7852 11.9648 10.7852 13.6406V20H6.78906V7.15234H10.6133V8.91406H10.6562C11.2148 7.92578 12.5039 6.85156 14.4375 6.85156C18.4766 6.85156 19.25 9.51562 19.25 12.9531V20H19.207Z" fill="white"/>
</svg>
