<svg width="17" height="16" viewBox="0 0 17 16" fill="none" xmlns="http://www.w3.org/2000/svg">
<path d="M14.6824 10.9109L12.42 10.6526C12.154 10.6214 11.8844 10.6508 11.6314 10.7388C11.3784 10.8267 11.1486 10.9708 10.9593 11.1603L9.32046 12.7992C6.79197 11.5132 4.73679 9.45803 3.45084 6.92954L5.09861 5.28177C5.4816 4.89878 5.66864 4.36436 5.6063 3.82105L5.348 1.57652C5.2975 1.14202 5.08898 0.741262 4.76214 0.450552C4.43529 0.159843 4.01296 -0.000518607 3.57553 1.26004e-06H2.03464C1.02817 1.26004e-06 0.190924 0.837246 0.253272 1.84372C0.725336 9.45018 6.80872 15.5247 14.4063 15.9967C15.4128 16.0591 16.25 15.2218 16.25 14.2154V12.6745C16.2589 11.7749 15.582 11.0178 14.6824 10.9109Z" fill="#0F4D92"/>
</svg>
